<?xml version="1.0" standalone="no"?>
<!DOCTYPE svg PUBLIC "-//W3C//DTD SVG 20010904//EN"
 "http://www.w3.org/TR/2001/REC-SVG-20010904/DTD/svg10.dtd">
<svg version="1.0" xmlns="http://www.w3.org/2000/svg"
 width="1280.000000pt" height="1274.000000pt" viewBox="0 0 1280.000000 1274.000000"
 preserveAspectRatio="xMidYMid meet">
<metadata>
Created by potrace 1.15, written by Peter Selinger 2001-2017
</metadata>
<g transform="translate(0.000000,1274.000000) scale(0.100000,-0.100000)"
fill="#000000" stroke="none">
<path d="M11975 12729 c-282 -26 -451 -72 -690 -189 -328 -160 -672 -387
-1490 -980 -544 -394 -567 -410 -727 -498 -154 -84 -321 -155 -710 -306 -385
-149 -497 -205 -580 -293 -34 -35 -30 -27 -273 -644 -474 -1204 -811 -2006
-997 -2372 -66 -129 -90 -166 -132 -205 -120 -109 -266 -120 -731 -56 -212 29
-415 36 -483 16 -76 -23 -197 -32 -289 -21 -251 27 -523 172 -523 278 0 14 34
57 96 121 58 60 93 103 89 110 -12 19 -93 4 -362 -66 -608 -158 -823 -204
-955 -204 -83 0 -108 11 -108 48 0 51 36 95 312 385 106 111 176 192 172 199
-5 8 -63 9 -212 4 -166 -5 -216 -10 -264 -27 -150 -50 -336 -166 -678 -424
-336 -253 -386 -285 -438 -285 -63 0 -54 44 68 350 173 434 238 712 200 851
-6 20 -27 56 -48 80 -21 24 -43 52 -49 62 -9 17 -14 14 -54 -31 -24 -27 -130
-161 -236 -298 -300 -390 -451 -561 -552 -626 -99 -63 -103 -33 -22 175 32 84
70 188 85 232 14 44 53 130 87 190 78 143 80 154 35 236 -64 116 -96 234 -161
594 -20 110 -39 202 -41 204 -2 2 -4 -11 -4 -30 -1 -123 -172 -680 -371 -1210
-157 -417 -289 -706 -350 -765 -28 -27 -29 -27 -50 -8 -68 62 -125 274 -210
784 -27 162 -54 305 -60 317 -26 50 -164 123 -231 123 -41 0 -44 -22 -15 -88
14 -31 30 -93 36 -137 6 -44 15 -408 21 -810 16 -1149 29 -1476 60 -1508 4 -5
30 -10 56 -12 96 -7 260 -75 534 -221 l155 -82 225 49 c124 28 237 48 252 45
212 -40 2413 -1105 2485 -1203 7 -9 13 -32 13 -51 0 -68 -78 -183 -350 -517
-72 -88 -144 -188 -162 -223 -27 -54 -30 -69 -25 -118 5 -47 20 -79 97 -209
160 -270 228 -445 256 -655 14 -105 15 -180 10 -460 -3 -184 -9 -402 -12 -485
-10 -237 13 -281 97 -188 85 96 202 288 463 761 86 156 174 310 196 341 123
182 489 363 879 435 166 31 308 13 555 -69 222 -74 428 -166 1041 -463 329
-159 385 -182 441 -182 86 0 148 -63 191 -195 23 -70 27 -101 31 -250 7 -283
-19 -369 -186 -617 -172 -253 -203 -348 -210 -640 -4 -193 -4 -198 21 -251 37
-80 83 -121 310 -270 115 -76 237 -165 278 -204 40 -37 70 -63 67 -58 -3 6
-43 70 -88 144 -45 74 -87 147 -92 162 -14 41 13 84 82 128 l59 38 -132 7
c-73 3 -145 10 -162 14 -66 18 -132 156 -142 297 -11 145 25 195 191 274 131
63 183 76 286 75 74 0 94 -4 154 -32 38 -18 91 -46 119 -63 32 -20 74 -34 116
-41 89 -14 106 -24 190 -114 39 -42 74 -74 77 -71 8 8 -16 87 -43 142 -36 72
-190 219 -288 277 -44 25 -132 67 -195 93 -63 26 -128 59 -144 73 -41 39 -66
98 -66 162 0 69 61 343 89 398 56 110 124 93 181 -48 54 -133 167 -288 272
-371 77 -61 83 -52 33 56 -54 116 -98 252 -93 291 3 26 7 29 35 28 17 -1 86
-23 154 -48 67 -25 123 -45 125 -43 2 1 -38 30 -88 62 -187 123 -249 213 -268
389 -6 54 -9 104 -6 111 10 27 227 61 452 72 79 3 144 10 144 15 0 16 -65 48
-155 77 -70 23 -524 131 -549 131 -17 0 -26 99 -26 276 l0 201 77 29 c42 16
106 49 142 74 l66 45 105 0 c114 -1 220 -24 334 -72 54 -23 70 -25 141 -20 83
6 261 47 400 92 56 18 120 29 215 36 171 13 206 25 265 94 61 72 90 80 260 70
72 -3 168 -10 214 -13 146 -12 155 -3 264 249 l63 144 60 32 c58 31 183 71
477 152 204 57 211 60 241 120 33 63 76 212 76 259 0 53 73 117 260 231 201
122 292 185 310 213 74 117 100 175 100 221 0 27 7 65 16 83 25 52 192 203
334 302 138 97 170 134 214 249 38 99 75 253 88 366 19 163 8 159 -206 -74
-205 -222 -214 -228 -367 -263 -609 -138 -904 -211 -1213 -300 -329 -96 -680
-184 -1141 -286 -254 -57 -239 -56 -309 -21 -73 36 -182 140 -238 225 -61 95
-54 114 66 178 44 24 81 48 83 54 2 7 -25 19 -64 28 -138 35 -634 259 -952
429 -273 147 -312 178 -291 233 23 61 117 135 310 244 133 76 177 123 219 235
l34 90 185 180 c266 260 334 356 412 590 132 391 302 1271 331 1714 9 144 14
171 36 215 33 67 102 151 263 321 158 168 200 220 279 351 155 257 507 628
883 933 177 144 326 280 518 477 335 342 687 768 769 932 48 94 16 115 -184
118 -77 1 -185 -2 -240 -7z m-4225 -9613 c55 -1 55 -1 53 -31 -6 -120 -2 -306
8 -379 7 -47 9 -89 6 -93 -4 -3 -57 23 -119 58 -177 100 -218 118 -288 130
-133 21 -138 37 -51 166 100 150 129 167 251 157 47 -4 110 -7 140 -8z"/>
</g>
</svg>
