<?xml version="1.0" standalone="no"?>
<!DOCTYPE svg PUBLIC "-//W3C//DTD SVG 20010904//EN"
 "http://www.w3.org/TR/2001/REC-SVG-20010904/DTD/svg10.dtd">
<svg version="1.0" xmlns="http://www.w3.org/2000/svg"
 width="2000.000000pt" height="2298.000000pt" viewBox="0 0 2000.000000 2298.000000"
 preserveAspectRatio="xMidYMid meet">

<g transform="translate(0.000000,2298.000000) scale(0.100000,-0.100000)"
fill="#000000" stroke="none">
<path d="M1270 22964 c0 -69 309 -543 440 -674 114 -115 559 -433 784 -561 42
-23 74 -44 72 -46 -13 -14 -593 300 -1451 784 -275 155 -497 273 -515 273 -24
0 -3 -98 40 -184 49 -99 141 -217 252 -321 182 -171 673 -513 1063 -740 83
-48 139 -84 126 -80 -33 10 -360 148 -721 305 -632 275 -970 410 -1098 440
-92 21 -107 -21 -46 -137 50 -97 127 -194 246 -309 146 -142 178 -162 633
-404 385 -205 632 -346 623 -356 -2 -1 -71 8 -153 21 -83 13 -229 35 -325 50
-96 15 -247 45 -335 67 -343 85 -690 148 -808 148 -52 0 -91 -19 -95 -46 -9
-63 195 -235 428 -361 88 -48 149 -74 535 -226 531 -210 600 -232 920 -302
366 -80 414 -95 453 -139 42 -48 210 -351 200 -361 -2 -2 -59 -13 -128 -24
-215 -35 -335 -82 -360 -140 -22 -55 14 -114 145 -234 47 -43 91 -91 99 -105
8 -17 16 -80 19 -167 6 -157 29 -260 78 -358 28 -54 30 -64 20 -97 -17 -58
-13 -110 14 -168 27 -59 140 -213 214 -294 l48 -52 -23 -51 c-28 -62 -54 -158
-54 -202 0 -43 22 -96 47 -114 11 -8 26 -32 33 -54 20 -62 68 -125 120 -157
l47 -29 6 -107 c3 -59 12 -134 21 -166 38 -137 120 -258 211 -311 42 -25 42
-26 48 -93 12 -143 82 -253 199 -311 34 -17 67 -31 73 -31 8 0 14 -26 18 -71
16 -191 161 -341 343 -355 95 -8 171 10 340 82 23 10 -25 -176 -66 -255 -37
-72 -112 -121 -187 -121 -69 0 -20 -18 82 -30 55 -7 101 -13 103 -15 2 -1 -37
-34 -85 -73 -108 -86 -150 -130 -196 -203 -50 -79 -82 -102 -192 -137 -246
-80 -589 -148 -1667 -331 -244 -42 -291 -55 -419 -122 -157 -82 -252 -184
-264 -284 -13 -99 14 -218 68 -304 30 -47 33 -58 26 -90 -21 -94 -29 -210 -18
-260 9 -42 8 -60 -5 -98 -22 -65 -30 -187 -17 -258 24 -128 101 -240 202 -290
36 -19 52 -36 74 -77 80 -155 255 -315 431 -393 74 -33 217 -75 255 -75 22 0
49 -18 111 -75 165 -151 249 -191 383 -182 232 14 443 186 853 696 491 610
760 902 917 992 85 49 123 36 194 -69 46 -68 114 -133 169 -161 23 -12 78 -32
124 -45 l83 -24 -1 -36 c-2 -47 -28 -86 -58 -86 -13 0 -43 7 -66 15 -81 29
-86 20 -39 -74 41 -82 122 -164 197 -199 l59 -28 -20 -29 c-32 -44 -35 -139
-7 -196 33 -65 76 -115 144 -169 l60 -48 2 -61 c2 -89 45 -171 133 -254 42
-39 94 -77 129 -93 l60 -27 1 -60 c1 -104 53 -219 132 -294 46 -43 139 -98
192 -113 l44 -12 6 -60 c15 -169 200 -373 392 -434 49 -16 51 -18 62 -63 45
-191 186 -286 365 -248 l37 8 45 -83 c24 -46 72 -146 106 -223 140 -323 192
-405 254 -405 48 0 115 49 185 134 35 43 65 75 67 73 2 -2 -23 -77 -57 -168
-142 -389 -285 -853 -314 -1023 -41 -242 2 -575 90 -690 75 -98 146 -35 252
223 23 58 43 101 43 95 0 -6 -11 -67 -25 -135 -75 -362 -100 -630 -71 -752 37
-155 120 -313 151 -287 36 30 296 696 561 1439 l59 164 3 -84 c2 -46 -9 -239
-23 -429 -45 -611 -48 -837 -15 -984 20 -90 70 -201 120 -268 49 -65 137 -136
150 -121 11 13 27 101 95 523 80 495 228 1328 249 1395 1 6 1 -64 -2 -155 -5
-154 7 -507 28 -906 18 -315 93 -526 241 -677 46 -46 84 -77 97 -77 23 0 21
-25 42 520 6 151 20 415 30 585 11 171 20 330 20 354 0 72 7 44 20 -79 36
-345 152 -682 287 -831 98 -108 121 -19 130 491 7 416 -9 773 -68 1499 -11
139 -18 256 -15 259 3 3 6 -6 6 -19 0 -46 59 -315 90 -409 48 -145 123 -291
184 -355 87 -92 101 -75 91 103 -44 775 -184 1530 -499 2680 -47 169 -110 404
-141 522 -121 459 -226 801 -284 924 -46 95 -168 208 -849 784 -188 160 -358
310 -378 334 -96 114 -286 404 -325 496 -25 59 -24 75 9 99 16 12 67 72 115
135 147 194 197 235 559 467 118 74 376 204 458 230 19 6 118 24 219 41 312
51 341 83 203 220 -127 126 -262 168 -572 179 l-205 8 -84 37 c-160 70 -218
79 -451 73 -203 -5 -322 -17 -619 -58 -144 -21 -157 -21 -225 -7 -147 32 -247
101 -316 216 -95 162 -249 572 -329 882 -76 294 -121 585 -121 790 -1 124 -10
169 -51 255 -64 131 -146 221 -622 681 -703 683 -1036 1002 -1427 1369 -210
197 -822 711 -1055 887 -113 85 -162 115 -171 106 -27 -28 170 -384 310 -560
25 -31 96 -98 158 -148 434 -352 715 -590 583 -492 -73 53 -876 626 -1100 784
-518 365 -991 687 -1230 838 -98 62 -275 160 -288 160 -4 0 -7 -7 -7 -16z"/>
<path d="M14175 15820 c-3 -6 -3 -20 0 -33 16 -55 14 -59 -10 -14 -29 55 -40
60 -31 15 6 -30 5 -31 -12 -14 -18 16 -19 15 -19 -37 0 -60 -9 -80 -68 -153
-23 -28 -44 -57 -47 -64 -7 -21 -41 3 -93 65 -39 46 -52 54 -73 50 -47 -8 -66
-39 -67 -102 l0 -57 40 -9 c137 -31 155 -44 155 -119 0 -51 -35 -129 -68 -155
-11 -7 -12 -12 -5 -13 7 0 10 -7 7 -15 -4 -10 0 -15 13 -15 10 0 23 -4 28 -8
16 -14 118 -40 153 -40 30 1 38 9 74 62 26 40 38 68 35 83 -6 32 9 29 50 -12
20 -20 37 -34 39 -32 8 7 -26 108 -45 136 -29 41 -27 55 17 90 38 29 39 33 46
108 3 43 9 92 12 108 5 30 5 30 -9 6 -12 -21 -13 -14 -9 60 3 66 2 81 -8 72
-7 -6 -16 -26 -20 -45 -7 -31 -8 -30 -9 17 -1 58 -16 91 -27 62 -3 -10 -4 -37
-1 -59 7 -52 -9 -30 -18 24 -7 40 -19 55 -30 38z"/>
<path d="M16280 11925 c-18 -22 -7 -146 19 -225 31 -93 114 -255 165 -323 24
-32 146 -173 272 -313 126 -140 233 -262 237 -270 19 -34 -18 -6 -129 99 -66
61 -169 157 -229 213 -61 55 -243 233 -405 396 -173 173 -329 321 -378 356
-130 96 -191 94 -178 -6 12 -88 106 -274 193 -380 19 -24 110 -111 202 -195
200 -182 381 -358 381 -369 0 -26 -277 153 -565 365 -322 238 -494 347 -548
347 -48 0 -41 -119 15 -229 54 -106 128 -171 393 -345 258 -170 468 -317 461
-323 -8 -8 -428 178 -962 426 -159 73 -221 92 -234 71 -17 -27 -11 -66 21
-128 52 -105 107 -145 394 -288 140 -70 267 -138 282 -151 l28 -24 -40 5 c-22
3 -139 32 -260 64 -446 120 -512 119 -441 -2 62 -107 247 -225 429 -275 26 -8
47 -19 47 -25 0 -6 -14 -23 -32 -37 l-32 -26 31 -49 c18 -27 43 -80 58 -119
29 -78 87 -186 109 -204 8 -7 20 -29 27 -49 7 -20 25 -56 40 -79 24 -34 29
-52 29 -99 0 -31 4 -73 9 -93 5 -20 17 -66 26 -103 10 -37 33 -93 51 -125 19
-31 33 -62 30 -69 -3 -7 -30 -29 -60 -48 -31 -20 -56 -40 -56 -44 0 -5 11 -19
25 -32 14 -13 25 -33 25 -44 0 -12 9 -36 20 -54 29 -48 25 -67 -25 -108 -49
-39 -57 -72 -30 -108 18 -23 19 -69 4 -94 -13 -20 5 -62 67 -160 19 -29 34
-60 34 -70 0 -9 -20 -42 -45 -72 -53 -65 -56 -91 -15 -122 39 -29 44 -47 29
-115 l-13 -56 32 -27 c18 -14 32 -30 32 -34 0 -5 -11 -22 -26 -38 -33 -41 -28
-67 20 -91 36 -19 38 -22 32 -57 -6 -37 -5 -38 41 -61 94 -48 63 -59 -161 -59
-333 0 -608 19 -951 65 -526 71 -643 85 -702 85 -49 0 -59 -4 -88 -33 -20 -20
-36 -48 -40 -70 -7 -33 -13 -40 -67 -63 -63 -29 -105 -70 -113 -112 -3 -15
-18 -67 -32 -117 -17 -57 -27 -118 -28 -165 -1 -41 -8 -111 -15 -156 -16 -101
-10 -133 29 -140 28 -6 29 -10 41 -88 26 -168 87 -330 160 -421 49 -62 138
-132 214 -171 91 -45 92 -47 110 -108 22 -75 44 -91 120 -90 74 1 179 40 316
117 52 29 199 111 325 182 274 153 616 325 702 354 43 14 102 23 192 27 146 8
176 1 203 -46 l17 -30 102 2 102 3 17 -30 c14 -26 23 -30 68 -33 l51 -3 6 -57
c15 -134 19 -146 45 -153 14 -4 44 -7 67 -8 l41 -1 7 -59 c4 -33 12 -66 18
-74 7 -8 44 -22 83 -32 l72 -17 4 -61 c6 -86 43 -160 82 -167 29 -5 30 -7 73
-175 37 -144 45 -191 50 -305 3 -74 9 -145 14 -157 6 -16 22 -26 55 -34 25 -7
48 -19 51 -27 4 -8 -3 -52 -15 -97 -36 -138 -25 -181 48 -187 l39 -3 -46 -70
c-94 -145 -120 -227 -91 -290 27 -60 108 -34 234 75 38 33 70 58 71 56 2 -2
-19 -47 -47 -100 -54 -104 -56 -121 -17 -163 46 -51 120 -22 235 95 l84 84 36
-35 c48 -45 72 -57 117 -57 53 0 120 39 213 124 45 42 85 76 90 77 4 0 50 1
103 2 91 2 100 4 181 44 59 30 109 65 162 114 l76 71 92 2 c135 3 170 17 254
100 85 85 139 183 160 293 8 41 17 80 21 86 3 6 21 -22 39 -61 18 -40 40 -75
49 -78 22 -9 63 31 87 83 27 61 51 234 43 318 -3 39 -29 210 -56 380 -38 233
-53 352 -58 480 -9 197 -23 245 -96 338 -57 73 -128 128 -247 193 -66 36 -94
57 -96 72 -4 26 24 34 198 57 69 9 177 25 241 36 64 10 138 19 164 19 64 0
269 -42 439 -91 77 -21 146 -39 153 -39 8 0 13 13 13 36 0 58 -91 145 -228
218 -77 40 -137 82 -202 139 -219 195 -344 280 -489 336 -42 16 -179 52 -306
80 -394 88 -441 113 -490 256 -59 175 -32 409 75 656 92 213 93 312 2 390 -66
56 -335 404 -402 520 -350 606 -580 964 -709 1101 -91 97 -113 88 -70 -29 48
-132 141 -302 238 -438 100 -139 109 -155 92 -155 -28 0 -311 332 -495 580
-308 416 -623 785 -707 831 -12 6 -21 4 -29 -6z"/>
<path d="M10800 8045 c0 -10 98 -54 136 -60 21 -4 46 -12 54 -17 19 -11 -54
-3 -163 18 -43 9 -83 13 -90 11 -19 -8 61 -38 117 -44 98 -11 82 -22 -31 -23
-110 0 -153 -11 -92 -24 18 -3 60 -6 94 -6 54 0 63 -3 61 -17 -2 -9 -8 -19
-15 -21 -9 -3 -9 -7 0 -18 6 -8 8 -14 4 -14 -4 0 4 -12 19 -26 14 -15 27 -32
27 -38 1 -6 3 -20 5 -31 2 -11 8 -48 13 -83 10 -74 15 -80 38 -61 25 21 73 40
73 30 0 -5 -20 -27 -44 -49 -45 -41 -80 -60 -169 -89 -54 -18 -80 -48 -75 -90
2 -24 8 -28 32 -28 34 0 44 -16 21 -35 -30 -25 -18 -40 32 -40 49 0 69 11 147
84 52 47 72 53 100 27 12 -12 28 -21 34 -21 7 0 12 -7 12 -15 0 -8 6 -15 14
-15 8 0 21 -9 29 -21 12 -17 22 -19 53 -14 34 5 36 4 17 -6 -27 -14 -29 -25
-8 -33 8 -3 15 -14 15 -25 0 -11 8 -26 19 -33 10 -7 20 -22 23 -33 2 -12 10
-19 20 -17 10 1 18 -7 22 -23 7 -29 21 -32 31 -7 7 15 9 13 15 -8 4 -14 12
-24 18 -23 16 4 15 -6 -8 -99 -12 -44 -19 -85 -17 -92 6 -15 42 65 63 142 9
34 19 60 21 58 2 -2 -3 -43 -12 -91 -18 -104 -17 -95 -6 -95 12 0 37 76 56
166 l15 69 -5 -68 c-3 -37 -8 -82 -12 -99 -4 -22 -3 -29 5 -24 20 12 44 115
44 189 1 75 15 68 18 -8 1 -32 3 -36 10 -20 5 11 9 40 9 65 1 58 -54 306 -74
337 -9 13 -35 32 -58 42 -23 10 -50 27 -59 38 -17 18 -15 21 43 81 33 34 67
62 75 62 8 0 14 4 14 9 0 17 -112 20 -173 4 -57 -14 -62 -14 -74 3 -7 10 -13
44 -13 80 l0 62 -49 21 c-27 11 -52 21 -56 21 -3 0 -49 18 -102 41 -101 43
-143 47 -52 4 76 -35 41 -31 -85 10 -108 35 -126 39 -126 30z"/>
<path d="M12331 4775 c8 -8 44 -30 79 -50 36 -19 62 -35 58 -35 -7 0 -97 35
-193 75 -36 15 -38 15 -25 1 9 -9 47 -29 85 -46 86 -36 69 -38 -50 -5 -49 13
-91 22 -93 20 -6 -5 8 -11 102 -41 56 -18 66 -24 50 -29 -24 -7 -25 -27 -3
-53 15 -18 14 -80 -2 -96 -5 -6 -9 -18 -9 -28 0 -15 9 -18 58 -19 l57 -1 -50
-14 c-29 -8 -97 -14 -161 -14 -97 0 -113 -2 -128 -19 -20 -22 -14 -41 14 -41
27 0 34 -17 10 -25 -32 -10 -24 -23 23 -36 34 -9 57 -8 117 5 118 25 123 24
189 -44 31 -33 55 -62 53 -65 -3 -3 0 -5 6 -5 7 0 12 -11 12 -25 0 -14 5 -25
10 -25 6 0 10 -9 10 -20 0 -11 7 -20 15 -20 8 0 15 -9 15 -19 0 -14 5 -18 20
-14 14 4 20 0 20 -11 0 -9 5 -16 11 -16 7 0 -9 -22 -35 -50 -25 -27 -46 -52
-46 -55 0 -14 21 -1 86 52 l69 58 -44 -53 c-24 -29 -42 -55 -38 -58 9 -9 72
43 99 81 12 19 27 35 31 35 5 0 -8 -23 -28 -50 -21 -28 -35 -54 -31 -57 10
-10 73 56 96 101 19 38 22 27 5 -19 -8 -19 -7 -19 14 1 25 24 37 65 46 170 8
79 4 87 -69 137 -14 10 -26 22 -26 27 0 8 64 30 140 48 l35 8 -50 16 c-28 9
-72 19 -100 22 -27 4 -58 9 -67 12 -22 6 -23 37 -3 67 8 12 11 27 7 33 -4 6
-41 30 -82 54 -41 24 -94 56 -118 73 -24 16 -46 26 -49 23 -3 -3 11 -15 31
-27 74 -43 33 -29 -71 25 -113 60 -126 65 -102 41z"/>
<path d="M8596 3151 c-9 -13 28 -108 62 -161 16 -25 61 -83 100 -130 39 -46
69 -87 66 -89 -7 -8 -135 97 -255 209 -66 62 -123 109 -126 106 -15 -15 38
-88 144 -195 62 -63 113 -116 113 -118 0 -2 -11 -1 -24 3 -22 5 -24 3 -19 -17
5 -19 3 -21 -13 -15 -53 22 -57 21 -49 -14 7 -30 5 -32 -14 -27 -24 6 -28 -12
-10 -45 8 -15 8 -22 -1 -28 -7 -5 -9 -20 -5 -43 6 -29 4 -38 -9 -43 -9 -3 -16
-14 -16 -24 0 -10 -11 -25 -25 -34 -14 -9 -25 -26 -25 -37 0 -34 -29 -79 -50
-79 -11 0 -20 -6 -20 -14 0 -7 -11 -21 -25 -30 -14 -9 -25 -24 -25 -33 0 -9
-8 -25 -17 -36 -17 -18 -17 -19 2 -33 10 -8 38 -14 61 -14 26 0 46 -6 51 -13
4 -8 25 -17 47 -20 47 -8 54 -13 35 -32 -11 -11 -23 -12 -54 -5 -22 5 -82 10
-133 10 -87 0 -100 3 -202 45 -60 24 -132 56 -159 70 -65 32 -104 32 -166 -4
-53 -30 -97 -71 -76 -71 6 0 11 -6 10 -12 -3 -28 3 -35 41 -47 40 -12 50 -24
30 -36 -8 -5 -7 -11 1 -21 10 -12 3 -14 -44 -14 -37 0 -61 -5 -71 -16 -19 -18
-19 -20 -6 -43 12 -23 111 -98 147 -112 14 -5 97 -12 182 -15 95 -3 174 -11
202 -20 43 -14 47 -18 51 -52 3 -20 0 -44 -5 -53 -8 -13 -4 -25 17 -50 24 -28
25 -34 12 -41 -18 -10 -22 -53 -6 -63 6 -3 10 -32 10 -64 0 -62 6 -72 54 -88
16 -5 36 -20 45 -33 15 -23 15 -24 -4 -16 -63 26 -75 29 -82 23 -4 -4 -2 -20
3 -36 9 -23 7 -35 -12 -72 -27 -52 -30 -77 -9 -85 13 -5 12 -13 -10 -49 -30
-52 -31 -72 -5 -80 25 -8 25 -23 0 -55 -11 -14 -20 -33 -20 -44 0 -16 5 -18
45 -13 l46 7 -27 -45 c-22 -39 -24 -46 -10 -51 9 -3 16 -12 16 -19 0 -13 -80
-69 -206 -144 -72 -42 -122 -86 -111 -97 15 -16 196 67 345 158 45 28 85 48
88 45 6 -5 -43 -43 -171 -133 -38 -27 -87 -64 -107 -82 -127 -115 91 -20 294
128 116 85 153 105 113 60 -10 -12 -73 -63 -139 -114 -67 -52 -132 -106 -145
-120 -23 -25 -24 -26 -4 -26 31 0 150 63 223 119 36 27 98 83 139 125 40 42
75 76 78 76 10 0 -23 -48 -65 -94 -105 -116 -98 -106 -76 -106 29 0 154 110
201 177 62 88 253 402 279 458 33 69 31 122 -7 208 -17 39 -34 96 -36 127 l-6
57 114 9 c145 11 221 8 266 -11 45 -19 43 -19 43 6 0 12 -23 43 -52 73 -29 29
-61 65 -72 80 -10 16 -43 39 -73 52 -30 14 -82 43 -115 65 -56 39 -60 43 -54
72 9 43 48 100 92 134 78 59 87 71 81 111 -4 20 -38 100 -76 177 -39 77 -98
205 -131 285 -65 154 -80 180 -80 139 0 -33 30 -119 64 -188 15 -29 25 -58 23
-64 -4 -14 -114 170 -215 361 -42 78 -82 142 -90 142 -8 0 -11 -7 -8 -17 3
-10 10 -38 16 -62 19 -72 57 -149 115 -232 54 -77 64 -99 45 -99 -13 0 -139
159 -239 302 -86 123 -96 134 -105 119z"/>
<path d="M16593 1413 c3 -27 8 -57 12 -68 3 -11 -10 9 -29 45 -28 53 -36 62
-42 46 -4 -11 1 -45 14 -85 l21 -66 -22 30 c-42 58 -76 91 -77 75 0 -20 65
-156 79 -164 6 -4 11 -18 11 -32 0 -21 -3 -24 -25 -18 -21 5 -25 3 -25 -17 0
-13 -9 -35 -20 -49 -11 -14 -20 -35 -20 -47 0 -13 -4 -23 -8 -23 -8 0 -35 -89
-46 -148 -4 -25 -1 -35 13 -44 18 -11 18 -13 3 -25 -30 -22 -66 -13 -147 37
-89 56 -111 61 -124 28 -5 -13 -18 -32 -30 -42 -27 -24 -27 -70 -1 -132 l21
-47 82 8 c133 13 129 13 138 -17 4 -16 4 -28 -1 -28 -22 0 -52 -252 -31 -265
6 -3 6 -18 0 -37 -6 -22 -5 -34 3 -39 7 -4 -5 -15 -30 -28 -22 -11 -50 -33
-62 -48 -19 -24 -20 -28 -6 -31 14 -3 12 -7 -9 -24 -14 -10 -25 -26 -25 -34 0
-11 16 -6 63 17 l62 31 -41 -43 c-23 -24 -45 -55 -49 -68 -8 -28 -1 -25 63 27
47 39 54 35 17 -10 -14 -16 -25 -39 -25 -51 0 -19 5 -16 41 18 26 26 37 32 30
18 -6 -12 -11 -30 -11 -40 1 -19 3 -17 78 72 27 31 32 35 27 16 -21 -72 80 75
148 216 l44 90 -9 78 c-14 112 -8 125 48 125 25 0 61 -7 80 -16 19 -9 37 -14
41 -11 9 10 -26 58 -85 113 -53 51 -54 53 -43 87 6 18 24 54 39 78 16 24 31
51 34 59 7 18 -17 305 -29 353 -7 32 -7 32 -13 -13 -5 -44 -6 -43 -29 58 -14
56 -28 102 -33 102 -4 0 -8 -21 -9 -47 l-1 -48 -21 63 c-25 74 -42 81 -34 15z"/>
</g>
</svg>
