<?xml version="1.0" standalone="no"?>
<!DOCTYPE svg PUBLIC "-//W3C//DTD SVG 20010904//EN"
 "http://www.w3.org/TR/2001/REC-SVG-20010904/DTD/svg10.dtd">
<svg version="1.0" xmlns="http://www.w3.org/2000/svg"
 width="2048.000000pt" height="2048.000000pt" viewBox="0 0 2048.000000 2048.000000"
 preserveAspectRatio="xMidYMid meet">

<g transform="translate(0.000000,2048.000000) scale(0.100000,-0.100000)"
fill="#000000" stroke="none">
<path d="M19546 19378 c-127 -296 -260 -584 -479 -1039 -289 -600 -282 -585
-550 -1274 -386 -993 -836 -2110 -1254 -3115 -235 -563 -271 -651 -428 -1020
-45 -107 -133 -314 -195 -460 -584 -1378 -1198 -2787 -1658 -3805 -347 -770
-868 -1846 -1168 -2415 -463 -880 -910 -1599 -1297 -2090 -344 -436 -694 -752
-1006 -910 -73 -36 -124 -39 -237 -10 -95 25 -157 61 -254 149 -490 443 -860
1372 -1190 2988 l-67 331 104 129 c236 289 508 668 696 970 245 392 516 929
684 1353 311 783 485 1520 534 2260 15 225 6 783 -15 980 -105 957 -448 1789
-1050 2545 -329 413 -746 806 -1202 1132 -310 222 -511 342 -897 534 l-268
134 -10 40 c-219 859 -437 1310 -743 1539 -73 55 -320 175 -405 197 -43 11
-108 19 -156 19 -90 0 -321 -32 -388 -54 -23 -8 -82 -24 -131 -36 -333 -82
-639 -332 -1010 -825 -62 -82 -124 -166 -137 -186 l-23 -36 -370 -6 c-565 -10
-975 -50 -1441 -143 -494 -98 -934 -257 -1084 -392 -66 -58 -64 -74 13 -98 52
-16 63 -16 273 5 269 26 556 51 604 51 l36 0 6 -662 c6 -683 14 -1004 47
-1838 l19 -485 -131 -300 c-382 -877 -606 -1434 -823 -2045 -48 -135 -99 -269
-113 -298 -14 -28 -22 -55 -18 -60 11 -10 87 77 151 173 75 114 153 255 490
895 164 311 338 639 386 729 l87 164 6 -74 c3 -41 10 -180 16 -309 76 -1661
247 -4350 385 -6060 104 -1282 246 -2655 309 -2983 16 -82 96 -247 139 -287
11 -11 19 -21 16 -23 -20 -16 -461 -267 -789 -449 -641 -356 -784 -441 -932
-550 -155 -113 -195 -163 -183 -227 16 -86 113 -220 178 -244 64 -24 445 73
807 205 811 296 2017 966 3065 1701 953 669 1702 1289 2442 2021 111 110 204
198 206 196 2 -3 21 -81 41 -175 134 -607 311 -1212 480 -1640 150 -377 426
-893 619 -1155 155 -211 477 -490 682 -590 151 -75 231 -93 405 -94 126 0 159
4 246 27 325 85 594 256 924 586 292 292 571 652 890 1145 892 1380 2075 3864
3298 6926 143 359 212 535 395 1005 97 250 264 683 302 785 23 63 95 255 160
425 426 1128 947 2595 1381 3890 143 426 181 558 334 1155 125 488 158 613
236 884 30 103 54 197 54 207 0 31 -29 22 -44 -13z m-12511 -1663 c143 -37
235 -116 307 -264 32 -68 149 -374 144 -379 -2 -1 -88 20 -192 48 -311 83
-586 139 -938 189 l-189 27 74 67 c170 154 359 270 501 307 89 23 213 25 293
5z m-2760 -885 c298 -12 665 -41 665 -52 0 -4 -60 -113 -134 -241 -280 -487
-543 -982 -806 -1520 -85 -174 -157 -317 -160 -317 -3 0 -16 93 -29 208 -66
596 -162 1317 -226 1704 -19 113 -35 209 -35 212 0 15 425 19 725 6z m1597
-175 c508 -94 945 -204 1368 -345 215 -72 461 -167 476 -183 22 -23 134 -667
219 -1260 68 -474 159 -1200 264 -2097 45 -377 115 -975 156 -1330 243 -2072
408 -3294 590 -4380 6 -34 2 -40 -182 -235 -345 -364 -864 -852 -1298 -1219
-366 -310 -593 -495 -866 -708 -265 -207 -674 -509 -919 -680 -36 -25 -99 -69
-140 -97 -323 -225 -967 -637 -978 -627 -3 4 2 20 12 36 32 56 39 191 32 695
-23 1851 -285 5641 -627 9088 l-60 608 102 187 c462 845 1083 1857 1498 2440
91 127 105 142 131 142 16 0 116 -16 222 -35z m2858 -1033 c177 -107 387 -246
527 -350 424 -317 902 -820 1190 -1252 151 -228 168 -259 261 -476 171 -400
265 -759 319 -1219 22 -189 25 -820 5 -1015 -126 -1217 -557 -2301 -1341
-3378 -58 -78 -106 -140 -108 -138 -12 12 -162 1075 -267 1896 -65 504 -145
1174 -296 2465 -225 1920 -315 2621 -420 3289 -22 136 -40 255 -40 263 0 17
-1 17 170 -85z"/>
</g>
</svg>
